<?xml version="1.0" standalone="no"?>
<!DOCTYPE svg PUBLIC "-//W3C//DTD SVG 20010904//EN"
 "http://www.w3.org/TR/2001/REC-SVG-20010904/DTD/svg10.dtd">
<svg version="1.0" xmlns="http://www.w3.org/2000/svg"
 width="512.000000pt" height="512.000000pt" viewBox="0 0 512.000000 512.000000"
 preserveAspectRatio="xMidYMid meet">
<metadata>
Created by potrace 1.16, written by Peter Selinger 2001-2019
</metadata>
<g transform="translate(0.000000,512.000000) scale(0.100000,-0.100000)"
fill="#000000" stroke="none">
<path d="M2285 4518 c-132 -214 -241 -394 -243 -399 -2 -5 66 -9 167 -9 l171
0 2 -322 3 -323 143 -3 142 -3 0 326 0 325 170 0 c94 0 170 4 170 9 0 8 -465
768 -479 783 -3 3 -114 -169 -246 -384z"/>
<path d="M3184 4169 l136 -204 -250 -3 -250 -2 0 -325 0 -325 -292 2 -293 3
-3 323 -2 322 -129 0 -129 0 -334 -216 c-183 -119 -427 -277 -542 -352 -210
-136 -246 -169 -246 -221 0 -39 36 -86 87 -114 27 -14 322 -170 657 -346 438
-230 625 -324 665 -332 68 -14 162 -6 227 19 60 23 1758 1122 1796 1163 50 52
49 107 0 154 -22 21 -1159 629 -1221 653 -7 3 48 -87 123 -199z"/>
<path d="M2955 2519 c-360 -236 -386 -251 -476 -274 -79 -21 -241 -16 -310 8
-25 9 -127 60 -226 112 -99 52 -185 95 -190 95 -24 0 -901 -424 -925 -447 -42
-40 -37 -80 15 -112 18 -10 314 -127 658 -260 659 -253 714 -270 828 -256 104
12 145 28 436 165 1171 554 1424 675 1453 697 28 21 33 30 30 61 -2 28 -10 41
-34 57 -28 19 -879 352 -921 360 -11 2 -150 -82 -338 -206z"/>
<path d="M3375 1681 c-462 -219 -865 -406 -895 -416 -77 -24 -258 -31 -340
-13 -36 8 -344 122 -684 253 l-619 238 -19 -23 c-26 -32 -23 -58 11 -88 20
-19 223 -102 677 -277 l649 -250 125 1 c101 0 135 4 180 21 47 18 1534 720
1690 798 70 35 100 62 100 92 0 26 -16 63 -28 63 -4 0 -385 -180 -847 -399z"/>
<path d="M3375 1398 c-566 -269 -864 -406 -914 -419 -89 -23 -258 -25 -341 -5
-30 7 -332 120 -670 250 l-615 237 -17 -22 c-34 -41 -15 -85 49 -118 12 -6
305 -120 650 -252 l628 -242 97 -5 c58 -3 123 0 160 8 46 9 265 107 813 367
413 196 802 380 865 410 63 30 127 66 143 81 31 30 36 71 10 94 -16 14 -92
-20 -858 -384z"/>
<path d="M3365 1110 c-560 -266 -863 -405 -910 -417 -83 -20 -267 -23 -335 -4
-25 7 -321 119 -659 248 -446 171 -619 233 -630 226 -44 -28 -38 -81 11 -111
67 -41 1284 -501 1354 -512 76 -12 160 -7 242 16 30 8 219 93 420 189 202 95
585 277 852 403 267 127 497 241 513 255 39 35 34 108 -7 107 -6 -1 -389 -181
-851 -400z"/>
<path d="M3347 819 c-451 -215 -844 -397 -875 -405 -87 -23 -244 -29 -327 -11
-39 8 -338 117 -664 243 -642 246 -621 240 -664 182 -25 -33 -17 -70 21 -96
15 -11 317 -131 672 -268 l645 -249 125 1 c101 0 136 4 180 21 52 20 209 93
1279 602 255 121 474 230 487 242 32 30 31 73 -2 104 -15 14 -34 25 -43 24 -9
0 -384 -176 -834 -390z"/>
</g>
</svg>
