<?xml version="1.0" standalone="no"?>
<!DOCTYPE svg PUBLIC "-//W3C//DTD SVG 20010904//EN"
 "http://www.w3.org/TR/2001/REC-SVG-20010904/DTD/svg10.dtd">
<svg version="1.0" xmlns="http://www.w3.org/2000/svg"
 width="226.000000pt" height="221.000000pt" viewBox="0 0 226.000000 221.000000"
 preserveAspectRatio="xMidYMid meet">
<metadata>
Created by potrace 1.16, written by Peter Selinger 2001-2019
</metadata>
<g transform="translate(0.000000,221.000000) scale(0.100000,-0.100000)"
fill="#000000" stroke="none">
<path d="M1380 2014 c-8 -3 -32 -15 -52 -25 -27 -13 -50 -17 -80 -13 -35 4
-56 -1 -116 -30 -66 -32 -78 -35 -135 -30 -53 5 -69 2 -107 -18 -63 -34 -186
-177 -239 -279 -57 -109 -77 -132 -104 -117 -50 27 -166 -52 -214 -146 -21
-41 -28 -69 -31 -142 -4 -78 -1 -96 17 -133 12 -23 29 -45 37 -48 24 -9 46
-73 36 -102 -5 -14 -6 -35 -1 -46 4 -11 8 -23 8 -26 1 -4 -24 -9 -55 -11 -44
-4 -61 -10 -80 -31 -14 -15 -33 -27 -44 -27 -27 0 -35 -18 -16 -39 9 -10 73
-47 141 -82 l125 -64 0 -36 c0 -45 28 -83 81 -109 21 -11 39 -27 39 -35 0 -7
10 -26 23 -41 18 -21 37 -29 80 -35 50 -6 62 -13 104 -56 27 -27 71 -60 98
-73 46 -23 61 -25 185 -24 133 0 137 1 255 43 66 24 176 56 245 72 353 80 445
148 481 353 15 90 6 164 -31 237 -52 103 -112 119 -258 70 -51 -18 -82 -18
-82 -2 0 3 34 19 75 34 71 27 75 30 75 59 l0 30 -127 -2 c-337 -6 -496 4 -374
24 46 7 295 85 394 122 56 22 67 29 67 49 0 13 -4 26 -9 29 -4 3 -40 -1 -80
-8 -39 -8 -68 -10 -66 -6 3 5 46 34 95 66 71 46 90 63 88 79 -2 12 -12 21 -25
23 -25 4 -29 12 -13 28 14 14 2 44 -16 44 -8 0 -87 -16 -177 -35 -89 -20 -207
-45 -262 -56 -99 -21 -100 -22 -175 -89 -74 -66 -198 -155 -205 -148 -2 2 34
33 81 68 96 73 154 132 154 157 0 12 -20 -2 -62 -43 -174 -169 -461 -352 -617
-394 -23 -6 -41 -14 -41 -18 0 -4 49 -38 110 -76 77 -48 110 -74 110 -87 0
-10 -3 -19 -6 -19 -4 0 -50 29 -104 65 -54 36 -102 65 -109 65 -22 0 -10 -21
31 -50 46 -34 28 -42 -24 -10 -34 21 -36 27 -36 145 0 11 -1 41 -1 67 l-1 47
112 56 c207 106 373 226 487 355 l64 72 56 -6 c31 -3 63 -7 71 -8 8 0 18 -5
21 -10 3 -5 38 -2 80 7 41 8 85 15 99 15 42 -1 2 -16 -77 -30 -73 -13 -102
-24 -92 -35 5 -5 423 77 456 90 7 2 15 0 18 -5 3 -5 -3 -11 -12 -14 -40 -11
-405 -86 -423 -86 -18 0 -37 -17 -28 -25 2 -3 109 18 238 45 129 27 237 47
239 44 11 -10 -23 -19 -269 -70 -144 -30 -266 -57 -272 -60 -5 -3 -6 -10 -1
-15 7 -7 559 106 572 117 4 4 -11 80 -30 148 -10 37 -12 38 -45 33 -23 -4 -34
-2 -34 6 0 8 25 12 79 12 67 0 83 3 103 21 13 12 33 25 45 28 12 4 34 21 48
38 36 43 21 58 -61 58 -37 0 -110 12 -179 30 -64 17 -133 30 -153 30 -22 0
-44 8 -58 21 -22 21 -86 33 -114 23z m88 -59 c43 -36 112 -149 101 -166 -5 -8
-9 -25 -9 -39 0 -22 -5 -19 -58 33 -32 31 -66 57 -77 57 -22 1 -105 71 -105
89 0 13 75 50 102 51 9 0 30 -11 46 -25z m-164 -70 c86 -73 113 -111 98 -136
-15 -24 -15 -72 0 -87 18 -18 1 -26 -30 -13 -16 7 -40 31 -53 53 -36 62 -79
101 -136 121 -62 22 -90 49 -70 65 16 14 98 50 114 51 6 1 41 -24 77 -54z
m360 22 c69 -21 80 -27 92 -55 7 -18 18 -32 24 -32 5 0 10 -5 10 -11 0 -13
-44 -9 -137 11 -43 10 -55 17 -77 50 -45 69 -36 73 88 37z m-622 -47 c22 -7
49 -25 66 -46 28 -34 29 -37 15 -66 -14 -27 -14 -34 1 -64 28 -59 -29 -37 -69
26 -17 27 -32 40 -48 40 -12 0 -35 7 -51 15 -35 18 -36 18 -36 1 0 -8 14 -23
31 -34 l30 -19 -32 -27 c-17 -15 -45 -30 -60 -33 -35 -7 -37 -19 -5 -27 14 -3
27 -14 30 -24 8 -23 -19 -125 -40 -158 -34 -51 -150 -129 -355 -238 -59 -31
-112 -63 -119 -71 -8 -10 -10 -28 -5 -52 6 -34 5 -36 -11 -22 -44 36 -58 154
-28 241 28 84 137 182 175 157 11 -8 9 -14 -13 -32 -16 -13 -28 -28 -28 -35 0
-15 5 -15 39 3 44 22 101 94 155 194 56 104 138 208 198 251 45 33 92 38 160
20z m698 -359 c0 -21 -74 -65 -133 -78 -34 -9 -130 -28 -214 -43 -150 -27
-153 -28 -220 -77 -117 -86 -368 -232 -379 -220 -3 2 41 31 98 62 131 74 194
116 291 199 43 36 86 66 95 66 9 0 114 22 232 49 252 57 230 53 230 42z m20
-75 c0 -2 -60 -40 -132 -84 -146 -88 -169 -95 -353 -107 -92 -6 -105 -10 -165
-45 -68 -40 -272 -130 -293 -130 -7 0 42 29 108 63 66 34 171 97 234 140 68
46 124 77 140 77 14 1 118 20 231 44 214 46 230 48 230 42z m-75 -165 c-16
-14 -348 -108 -550 -156 -104 -24 -206 -49 -225 -55 -69 -20 -74 -8 -7 15 38
14 118 49 177 79 105 54 111 55 232 66 67 6 177 22 243 35 146 28 141 27 130
16z m-88 -206 c94 0 169 -3 167 -7 -8 -12 -194 -68 -297 -89 -139 -29 -391
-35 -620 -15 -104 9 -195 16 -203 16 -8 0 -14 4 -14 9 0 5 24 12 53 15 28 4
131 25 227 46 l175 39 170 -7 c94 -4 247 -7 342 -7z m343 -105 c26 -14 66 -85
80 -142 9 -36 9 -63 1 -114 -15 -84 -39 -130 -90 -177 -76 -68 -165 -104 -406
-161 -60 -14 -150 -41 -200 -60 -208 -79 -393 -70 -480 23 -44 47 -42 112 6
206 l36 70 43 -4 c36 -2 46 1 61 20 l19 24 0 -30 c0 -29 -47 -137 -87 -197
-24 -38 -8 -47 27 -13 l29 28 79 -47 79 -46 119 29 c65 17 216 53 334 81 118
28 232 55 253 61 l37 10 0 87 0 87 -206 114 c-132 73 -201 117 -193 121 8 4
44 13 80 20 l66 13 62 -33 c34 -19 94 -62 132 -98 38 -35 69 -60 69 -55 -1 9
-36 58 -88 121 l-32 41 62 14 c79 19 85 19 108 7z m-319 -156 c116 -64 207
-120 202 -124 -4 -4 -156 -39 -337 -80 l-328 -72 -42 22 c-53 29 -76 50 -76
67 0 20 14 16 72 -18 l53 -31 288 58 c270 55 319 67 307 77 -3 2 -87 50 -187
106 -101 57 -183 105 -183 107 0 13 42 -8 231 -112z m-1043 -7 c31 -33 65
-134 58 -172 -14 -69 -38 -115 -61 -115 -40 0 -63 38 -66 110 -3 57 0 70 20
95 18 24 22 38 17 67 -7 44 2 48 32 15z m208 -217 c-9 -45 -16 -101 -16 -125
0 -47 -9 -55 -65 -55 -37 0 -62 19 -71 55 -3 14 8 66 28 129 l33 106 33 0 c27
0 35 5 50 37 l17 36 3 -51 c2 -28 -4 -88 -12 -132z"/>
</g>
</svg>
